<svg xmlns="http://www.w3.org/2000/svg" width="150" height="95" viewBox="0 0 150 95"><defs><linearGradient id="l" x2=".7" y2="1"><stop stop-color="#799848"/><stop offset=".4" stop-color="#34603c"/><stop offset="1" stop-color="#102d25"/></linearGradient></defs><path d="M0 20Q34 5 75 16T149 12M26 14Q8 32 15 80" fill="none" stroke="#433827" stroke-width="6"/><path d="M0 17Q34 2 75 13T149 9" fill="none" stroke="#9e8659" stroke-width="1.5"/><g fill="url(#l)" stroke="#6b8c4833"><path d="M18 14Q-2 4 6 0Q31-1 31 13Q24 35 12 36Q9 25 18 14Z"/><path d="M42 13Q44-4 61 0Q59 17 42 13Q40 39 27 42Q24 21 42 13Z"/><path d="M79 13Q80 31 69 38Q60 23 79 13Q89-2 103 2Q96 15 79 13Z"/><path d="M114 14Q118 32 131 34Q135 21 114 14Z"/><path d="M14 42Q1 30 0 45Q0 63 13 57Q21 78 34 76Q34 54 14 42Z"/></g><g stroke="#b8bd714d" stroke-width=".7" fill="none"><path d="M29 12 14 30M42 12 31 35M79 14 71 31M16 43 29 68"/></g></svg>
